<svg width="20" height="20" viewBox="0 0 20 20" fill="none" xmlns="http://www.w3.org/2000/svg">
<path d="M2.36995 13.6452C2.12332 13.4086 2 13.1075 2 12.7419C2 12.3763 2.12332 12.0753 2.36995 11.8387L8.5583 5.90323C8.69282 5.77419 8.96188 5.51613 8.96188 5.51613C8.96188 5.51613 8.96188 5.51613 9.5 5L10.0381 5.51613C10.0381 5.51613 10.3296 5.7957 10.4417 5.90323L16.63 11.8387C16.8767 12.0753 17 12.3763 17 12.7419C17 13.1075 16.8767 13.4086 16.63 13.6452C16.3834 13.8817 16.0695 14 15.6883 14C15.3072 14 14.9933 13.8817 14.7466 13.6452L9.5 8.6129L4.25336 13.6452C4.00673 13.8817 3.69282 14 3.31166 14C2.93049 14 2.61659 13.8817 2.36995 13.6452Z" fill="white"/>
</svg>
